<?xml version="1.0" encoding="UTF-8" ?>
<svg version="1.1" width="25" height="40" xmlns="http://www.w3.org/2000/svg" shape-rendering="crispEdges">
<rect x="8" y="18" width="1" height="1" fill="#3DB914" />
<rect x="10" y="18" width="1" height="1" fill="#3DB914" />
<rect x="12" y="18" width="1" height="1" fill="#3DB914" />
<rect x="15" y="18" width="1" height="1" fill="#3DB914" />
<rect x="9" y="19" width="1" height="1" fill="#6ABE30" />
<rect x="10" y="19" width="1" height="1" fill="#6ABE30" />
<rect x="11" y="19" width="1" height="1" fill="#6ABE30" />
<rect x="12" y="19" width="1" height="1" fill="#3DB914" />
<rect x="13" y="19" width="1" height="1" fill="#6ABE30" />
<rect x="14" y="19" width="1" height="1" fill="#6ABE30" />
<rect x="8" y="20" width="1" height="1" fill="#C70C1F" />
<rect x="9" y="20" width="1" height="1" fill="#C70C1F" />
<rect x="10" y="20" width="1" height="1" fill="#C70C1F" />
<rect x="11" y="20" width="1" height="1" fill="#6ABE30" />
<rect x="12" y="20" width="1" height="1" fill="#6ABE30" />
<rect x="13" y="20" width="1" height="1" fill="#6ABE30" />
<rect x="14" y="20" width="1" height="1" fill="#FF3434" />
<rect x="15" y="20" width="1" height="1" fill="#FF3434" />
<rect x="16" y="20" width="1" height="1" fill="#FF5454" />
<rect x="7" y="21" width="1" height="1" fill="#C70C1F" />
<rect x="8" y="21" width="1" height="1" fill="#FBE136" />
<rect x="9" y="21" width="1" height="1" fill="#D91E31" />
<rect x="10" y="21" width="1" height="1" fill="#D91E31" />
<rect x="11" y="21" width="1" height="1" fill="#D91E31" />
<rect x="12" y="21" width="1" height="1" fill="#FBE136" />
<rect x="13" y="21" width="1" height="1" fill="#D91E31" />
<rect x="14" y="21" width="1" height="1" fill="#D91E31" />
<rect x="15" y="21" width="1" height="1" fill="#FF3434" />
<rect x="16" y="21" width="1" height="1" fill="#FBE136" />
<rect x="17" y="21" width="1" height="1" fill="#FF5454" />
<rect x="7" y="22" width="1" height="1" fill="#C70C1F" />
<rect x="8" y="22" width="1" height="1" fill="#D91E31" />
<rect x="9" y="22" width="1" height="1" fill="#D91E31" />
<rect x="10" y="22" width="1" height="1" fill="#D91E31" />
<rect x="11" y="22" width="1" height="1" fill="#D91E31" />
<rect x="12" y="22" width="1" height="1" fill="#D91E31" />
<rect x="13" y="22" width="1" height="1" fill="#D91E31" />
<rect x="14" y="22" width="1" height="1" fill="#D91E31" />
<rect x="15" y="22" width="1" height="1" fill="#D91E31" />
<rect x="16" y="22" width="1" height="1" fill="#FF3434" />
<rect x="17" y="22" width="1" height="1" fill="#FF5454" />
<rect x="7" y="23" width="1" height="1" fill="#C70C1F" />
<rect x="8" y="23" width="1" height="1" fill="#D91E31" />
<rect x="9" y="23" width="1" height="1" fill="#D91E31" />
<rect x="10" y="23" width="1" height="1" fill="#FBE136" />
<rect x="11" y="23" width="1" height="1" fill="#D91E31" />
<rect x="12" y="23" width="1" height="1" fill="#D91E31" />
<rect x="13" y="23" width="1" height="1" fill="#D91E31" />
<rect x="14" y="23" width="1" height="1" fill="#FBE136" />
<rect x="15" y="23" width="1" height="1" fill="#D91E31" />
<rect x="16" y="23" width="1" height="1" fill="#FF3434" />
<rect x="17" y="23" width="1" height="1" fill="#FF5454" />
<rect x="8" y="24" width="1" height="1" fill="#C70C1F" />
<rect x="9" y="24" width="1" height="1" fill="#D91E31" />
<rect x="10" y="24" width="1" height="1" fill="#D91E31" />
<rect x="11" y="24" width="1" height="1" fill="#D91E31" />
<rect x="12" y="24" width="1" height="1" fill="#D91E31" />
<rect x="13" y="24" width="1" height="1" fill="#D91E31" />
<rect x="14" y="24" width="1" height="1" fill="#D91E31" />
<rect x="15" y="24" width="1" height="1" fill="#FF3434" />
<rect x="16" y="24" width="1" height="1" fill="#FF5454" />
<rect x="9" y="25" width="1" height="1" fill="#C70C1F" />
<rect x="10" y="25" width="1" height="1" fill="#D91E31" />
<rect x="11" y="25" width="1" height="1" fill="#D91E31" />
<rect x="12" y="25" width="1" height="1" fill="#FBE136" />
<rect x="13" y="25" width="1" height="1" fill="#D91E31" />
<rect x="14" y="25" width="1" height="1" fill="#FF3434" />
<rect x="15" y="25" width="1" height="1" fill="#FF3434" />
<rect x="10" y="26" width="1" height="1" fill="#C70C1F" />
<rect x="11" y="26" width="1" height="1" fill="#D91E31" />
<rect x="12" y="26" width="1" height="1" fill="#D91E31" />
<rect x="13" y="26" width="1" height="1" fill="#FF3434" />
<rect x="14" y="26" width="1" height="1" fill="#FF3434" />
<rect x="11" y="27" width="1" height="1" fill="#C70C1F" />
<rect x="12" y="27" width="1" height="1" fill="#FF3434" />
<rect x="13" y="27" width="1" height="1" fill="#FF5454" />
</svg>