<?xml version="1.0" encoding="UTF-8" ?>
<svg version="1.1" width="72" height="72" xmlns="http://www.w3.org/2000/svg" shape-rendering="crispEdges">
<rect x="32" y="29" width="1" height="1" fill="#FFFFFF" />
<rect x="33" y="29" width="1" height="1" fill="#FFFFFF" />
<rect x="34" y="29" width="1" height="1" fill="#FFFFFF" />
<rect x="35" y="29" width="1" height="1" fill="#FFFFFF" />
<rect x="36" y="29" width="1" height="1" fill="#FFFFFF" />
<rect x="37" y="29" width="1" height="1" fill="#FFFFFF" />
<rect x="30" y="30" width="1" height="1" fill="#FFFFFF" />
<rect x="31" y="30" width="1" height="1" fill="#FFFFFF" />
<rect x="32" y="30" width="1" height="1" fill="#FFFFFF" />
<rect x="33" y="30" width="1" height="1" fill="#FFFFFF" />
<rect x="34" y="30" width="1" height="1" fill="#FFFFFF" />
<rect x="35" y="30" width="1" height="1" fill="#FFFFFF" />
<rect x="36" y="30" width="1" height="1" fill="#FFFFFF" />
<rect x="37" y="30" width="1" height="1" fill="#FFFFFF" />
<rect x="38" y="30" width="1" height="1" fill="#FFFFFF" />
<rect x="39" y="30" width="1" height="1" fill="#FFFFFF" />
<rect x="28" y="31" width="1" height="1" fill="#FFFFFF" />
<rect x="29" y="31" width="1" height="1" fill="#FFFFFF" />
<rect x="30" y="31" width="1" height="1" fill="#FFFFFF" />
<rect x="31" y="31" width="1" height="1" fill="#FFFFFF" />
<rect x="32" y="31" width="1" height="1" fill="#F2F2F2" />
<rect x="33" y="31" width="1" height="1" fill="#F2F2F2" />
<rect x="34" y="31" width="1" height="1" fill="#F2F2F2" />
<rect x="35" y="31" width="1" height="1" fill="#F2F2F2" />
<rect x="36" y="31" width="1" height="1" fill="#F2F2F2" />
<rect x="37" y="31" width="1" height="1" fill="#FFFFFF" />
<rect x="38" y="31" width="1" height="1" fill="#FFFFFF" />
<rect x="39" y="31" width="1" height="1" fill="#FFFFFF" />
<rect x="40" y="31" width="1" height="1" fill="#FFFFFF" />
<rect x="41" y="31" width="1" height="1" fill="#FFFFFF" />
<rect x="27" y="32" width="1" height="1" fill="#FFFFFF" />
<rect x="28" y="32" width="1" height="1" fill="#FFFFFF" />
<rect x="29" y="32" width="1" height="1" fill="#FFFFFF" />
<rect x="30" y="32" width="1" height="1" fill="#FFFFFF" />
<rect x="31" y="32" width="1" height="1" fill="#F2F2F2" />
<rect x="32" y="32" width="1" height="1" fill="#F2F2F2" />
<rect x="33" y="32" width="1" height="1" fill="#F2F2F2" />
<rect x="34" y="32" width="1" height="1" fill="#F2F2F2" />
<rect x="35" y="32" width="1" height="1" fill="#F2F2F2" />
<rect x="36" y="32" width="1" height="1" fill="#F2F2F2" />
<rect x="37" y="32" width="1" height="1" fill="#F2F2F2" />
<rect x="38" y="32" width="1" height="1" fill="#F2F2F2" />
<rect x="39" y="32" width="1" height="1" fill="#FFFFFF" />
<rect x="40" y="32" width="1" height="1" fill="#FFFFFF" />
<rect x="41" y="32" width="1" height="1" fill="#FFFFFF" />
<rect x="42" y="32" width="1" height="1" fill="#FFFFFF" />
<rect x="26" y="33" width="1" height="1" fill="#FFFFFF" />
<rect x="27" y="33" width="1" height="1" fill="#FFFFFF" />
<rect x="28" y="33" width="1" height="1" fill="#F2F2F2" />
<rect x="29" y="33" width="1" height="1" fill="#F2F2F2" />
<rect x="30" y="33" width="1" height="1" fill="#F2F2F2" />
<rect x="31" y="33" width="1" height="1" fill="#F2F2F2" />
<rect x="32" y="33" width="1" height="1" fill="#F2F2F2" />
<rect x="33" y="33" width="1" height="1" fill="#F2F2F2" />
<rect x="34" y="33" width="1" height="1" fill="#F2F2F2" />
<rect x="35" y="33" width="1" height="1" fill="#F2F2F2" />
<rect x="36" y="33" width="1" height="1" fill="#F2F2F2" />
<rect x="37" y="33" width="1" height="1" fill="#F2F2F2" />
<rect x="38" y="33" width="1" height="1" fill="#F2F2F2" />
<rect x="39" y="33" width="1" height="1" fill="#F2F2F2" />
<rect x="40" y="33" width="1" height="1" fill="#F2F2F2" />
<rect x="41" y="33" width="1" height="1" fill="#F2F2F2" />
<rect x="42" y="33" width="1" height="1" fill="#FFFFFF" />
<rect x="43" y="33" width="1" height="1" fill="#FFFFFF" />
<rect x="25" y="34" width="1" height="1" fill="#FFFFFF" />
<rect x="26" y="34" width="1" height="1" fill="#FFFFFF" />
<rect x="27" y="34" width="1" height="1" fill="#F2F2F2" />
<rect x="28" y="34" width="1" height="1" fill="#F2F2F2" />
<rect x="29" y="34" width="1" height="1" fill="#F2F2F2" />
<rect x="30" y="34" width="1" height="1" fill="#F2F2F2" />
<rect x="31" y="34" width="1" height="1" fill="#F2F2F2" />
<rect x="32" y="34" width="1" height="1" fill="#F2F2F2" />
<rect x="33" y="34" width="1" height="1" fill="#F2F2F2" />
<rect x="34" y="34" width="1" height="1" fill="#F2F2F2" />
<rect x="35" y="34" width="1" height="1" fill="#F2F2F2" />
<rect x="36" y="34" width="1" height="1" fill="#F2F2F2" />
<rect x="37" y="34" width="1" height="1" fill="#F2F2F2" />
<rect x="38" y="34" width="1" height="1" fill="#F2F2F2" />
<rect x="39" y="34" width="1" height="1" fill="#F2F2F2" />
<rect x="40" y="34" width="1" height="1" fill="#F2F2F2" />
<rect x="41" y="34" width="1" height="1" fill="#F2F2F2" />
<rect x="42" y="34" width="1" height="1" fill="#F2F2F2" />
<rect x="43" y="34" width="1" height="1" fill="#FFFFFF" />
<rect x="44" y="34" width="1" height="1" fill="#FFFFFF" />
<rect x="25" y="35" width="1" height="1" fill="#FFFFFF" />
<rect x="26" y="35" width="1" height="1" fill="#F2F2F2" />
<rect x="27" y="35" width="1" height="1" fill="#F2F2F2" />
<rect x="28" y="35" width="1" height="1" fill="#F2F2F2" />
<rect x="29" y="35" width="1" height="1" fill="#F2F2F2" />
<rect x="30" y="35" width="1" height="1" fill="#F2F2F2" />
<rect x="31" y="35" width="1" height="1" fill="#F2F2F2" />
<rect x="32" y="35" width="1" height="1" fill="#F2F2F2" />
<rect x="33" y="35" width="1" height="1" fill="#F2F2F2" />
<rect x="34" y="35" width="1" height="1" fill="#F2F2F2" />
<rect x="35" y="35" width="1" height="1" fill="#F2F2F2" />
<rect x="36" y="35" width="1" height="1" fill="#F2F2F2" />
<rect x="37" y="35" width="1" height="1" fill="#F2F2F2" />
<rect x="38" y="35" width="1" height="1" fill="#F2F2F2" />
<rect x="39" y="35" width="1" height="1" fill="#F2F2F2" />
<rect x="40" y="35" width="1" height="1" fill="#F2F2F2" />
<rect x="41" y="35" width="1" height="1" fill="#F2F2F2" />
<rect x="42" y="35" width="1" height="1" fill="#F2F2F2" />
<rect x="43" y="35" width="1" height="1" fill="#FFFFFF" />
<rect x="44" y="35" width="1" height="1" fill="#FFFFFF" />
<rect x="24" y="36" width="1" height="1" fill="#FFFFFF" />
<rect x="25" y="36" width="1" height="1" fill="#FFFFFF" />
<rect x="26" y="36" width="1" height="1" fill="#F2F2F2" />
<rect x="27" y="36" width="1" height="1" fill="#F2F2F2" />
<rect x="28" y="36" width="1" height="1" fill="#F2F2F2" />
<rect x="29" y="36" width="1" height="1" fill="#F2F2F2" />
<rect x="30" y="36" width="1" height="1" fill="#F2F2F2" />
<rect x="31" y="36" width="1" height="1" fill="#F2F2F2" />
<rect x="32" y="36" width="1" height="1" fill="#F2F2F2" />
<rect x="33" y="36" width="1" height="1" fill="#F2F2F2" />
<rect x="34" y="36" width="1" height="1" fill="#F2F2F2" />
<rect x="35" y="36" width="1" height="1" fill="#F2F2F2" />
<rect x="36" y="36" width="1" height="1" fill="#F2F2F2" />
<rect x="37" y="36" width="1" height="1" fill="#F2F2F2" />
<rect x="38" y="36" width="1" height="1" fill="#F2F2F2" />
<rect x="39" y="36" width="1" height="1" fill="#F2F2F2" />
<rect x="40" y="36" width="1" height="1" fill="#F2F2F2" />
<rect x="41" y="36" width="1" height="1" fill="#F2F2F2" />
<rect x="42" y="36" width="1" height="1" fill="#F2F2F2" />
<rect x="43" y="36" width="1" height="1" fill="#FFFFFF" />
<rect x="44" y="36" width="1" height="1" fill="#FFFFFF" />
<rect x="45" y="36" width="1" height="1" fill="#FFFFFF" />
<rect x="24" y="37" width="1" height="1" fill="#FFFFFF" />
<rect x="25" y="37" width="1" height="1" fill="#FFFFFF" />
<rect x="26" y="37" width="1" height="1" fill="#F2F2F2" />
<rect x="27" y="37" width="1" height="1" fill="#F2F2F2" />
<rect x="28" y="37" width="1" height="1" fill="#F2F2F2" />
<rect x="29" y="37" width="1" height="1" fill="#F2F2F2" />
<rect x="30" y="37" width="1" height="1" fill="#F2F2F2" />
<rect x="31" y="37" width="1" height="1" fill="#F2F2F2" />
<rect x="32" y="37" width="1" height="1" fill="#F2F2F2" />
<rect x="33" y="37" width="1" height="1" fill="#F2F2F2" />
<rect x="34" y="37" width="1" height="1" fill="#F2F2F2" />
<rect x="35" y="37" width="1" height="1" fill="#F2F2F2" />
<rect x="36" y="37" width="1" height="1" fill="#F2F2F2" />
<rect x="37" y="37" width="1" height="1" fill="#F2F2F2" />
<rect x="38" y="37" width="1" height="1" fill="#F2F2F2" />
<rect x="39" y="37" width="1" height="1" fill="#F2F2F2" />
<rect x="40" y="37" width="1" height="1" fill="#F2F2F2" />
<rect x="41" y="37" width="1" height="1" fill="#F2F2F2" />
<rect x="42" y="37" width="1" height="1" fill="#F2F2F2" />
<rect x="43" y="37" width="1" height="1" fill="#F2F2F2" />
<rect x="44" y="37" width="1" height="1" fill="#FFFFFF" />
<rect x="45" y="37" width="1" height="1" fill="#FFFFFF" />
<rect x="23" y="38" width="1" height="1" fill="#FFFFFF" />
<rect x="24" y="38" width="1" height="1" fill="#FFFFFF" />
<rect x="25" y="38" width="1" height="1" fill="#FFFFFF" />
<rect x="26" y="38" width="1" height="1" fill="#F2F2F2" />
<rect x="27" y="38" width="1" height="1" fill="#F2F2F2" />
<rect x="28" y="38" width="1" height="1" fill="#F2F2F2" />
<rect x="29" y="38" width="1" height="1" fill="#F2F2F2" />
<rect x="30" y="38" width="1" height="1" fill="#F2F2F2" />
<rect x="31" y="38" width="1" height="1" fill="#F2F2F2" />
<rect x="32" y="38" width="1" height="1" fill="#F2F2F2" />
<rect x="33" y="38" width="1" height="1" fill="#F2F2F2" />
<rect x="34" y="38" width="1" height="1" fill="#F2F2F2" />
<rect x="35" y="38" width="1" height="1" fill="#F2F2F2" />
<rect x="36" y="38" width="1" height="1" fill="#F2F2F2" />
<rect x="37" y="38" width="1" height="1" fill="#F2F2F2" />
<rect x="38" y="38" width="1" height="1" fill="#F2F2F2" />
<rect x="39" y="38" width="1" height="1" fill="#F2F2F2" />
<rect x="40" y="38" width="1" height="1" fill="#F2F2F2" />
<rect x="41" y="38" width="1" height="1" fill="#F2F2F2" />
<rect x="42" y="38" width="1" height="1" fill="#F2F2F2" />
<rect x="43" y="38" width="1" height="1" fill="#F2F2F2" />
<rect x="44" y="38" width="1" height="1" fill="#FFFFFF" />
<rect x="45" y="38" width="1" height="1" fill="#FFFFFF" />
<rect x="46" y="38" width="1" height="1" fill="#FFFFFF" />
<rect x="47" y="38" width="1" height="1" fill="#FFFFFF" />
<rect x="48" y="38" width="1" height="1" fill="#FFFFFF" />
<rect x="49" y="38" width="1" height="1" fill="#FFFFFF" />
<rect x="50" y="38" width="1" height="1" fill="#FFFFFF" />
<rect x="51" y="38" width="1" height="1" fill="#FFFFFF" />
<rect x="23" y="39" width="1" height="1" fill="#FFFFFF" />
<rect x="24" y="39" width="1" height="1" fill="#FFFFFF" />
<rect x="25" y="39" width="1" height="1" fill="#F2F2F2" />
<rect x="26" y="39" width="1" height="1" fill="#F2F2F2" />
<rect x="27" y="39" width="1" height="1" fill="#F2F2F2" />
<rect x="28" y="39" width="1" height="1" fill="#F2F2F2" />
<rect x="29" y="39" width="1" height="1" fill="#F2F2F2" />
<rect x="30" y="39" width="1" height="1" fill="#F2F2F2" />
<rect x="31" y="39" width="1" height="1" fill="#F2F2F2" />
<rect x="32" y="39" width="1" height="1" fill="#F2F2F2" />
<rect x="33" y="39" width="1" height="1" fill="#F2F2F2" />
<rect x="34" y="39" width="1" height="1" fill="#F2F2F2" />
<rect x="35" y="39" width="1" height="1" fill="#F2F2F2" />
<rect x="36" y="39" width="1" height="1" fill="#F2F2F2" />
<rect x="37" y="39" width="1" height="1" fill="#F2F2F2" />
<rect x="38" y="39" width="1" height="1" fill="#F2F2F2" />
<rect x="39" y="39" width="1" height="1" fill="#F2F2F2" />
<rect x="40" y="39" width="1" height="1" fill="#F2F2F2" />
<rect x="41" y="39" width="1" height="1" fill="#F2F2F2" />
<rect x="42" y="39" width="1" height="1" fill="#F2F2F2" />
<rect x="43" y="39" width="1" height="1" fill="#F2F2F2" />
<rect x="44" y="39" width="1" height="1" fill="#F2F2F2" />
<rect x="45" y="39" width="1" height="1" fill="#FFFFFF" />
<rect x="46" y="39" width="1" height="1" fill="#FFFFFF" />
<rect x="47" y="39" width="1" height="1" fill="#FFFFFF" />
<rect x="48" y="39" width="1" height="1" fill="#FFFFFF" />
<rect x="49" y="39" width="1" height="1" fill="#FFFFFF" />
<rect x="50" y="39" width="1" height="1" fill="#FFFFFF" />
<rect x="51" y="39" width="1" height="1" fill="#FFFFFF" />
<rect x="23" y="40" width="1" height="1" fill="#FFFFFF" />
<rect x="24" y="40" width="1" height="1" fill="#FFFFFF" />
<rect x="25" y="40" width="1" height="1" fill="#F2F2F2" />
<rect x="26" y="40" width="1" height="1" fill="#F2F2F2" />
<rect x="27" y="40" width="1" height="1" fill="#F2F2F2" />
<rect x="28" y="40" width="1" height="1" fill="#F2F2F2" />
<rect x="29" y="40" width="1" height="1" fill="#F2F2F2" />
<rect x="30" y="40" width="1" height="1" fill="#F2F2F2" />
<rect x="31" y="40" width="1" height="1" fill="#F2F2F2" />
<rect x="32" y="40" width="1" height="1" fill="#F2F2F2" />
<rect x="33" y="40" width="1" height="1" fill="#F2F2F2" />
<rect x="34" y="40" width="1" height="1" fill="#F2F2F2" />
<rect x="35" y="40" width="1" height="1" fill="#F2F2F2" />
<rect x="36" y="40" width="1" height="1" fill="#F2F2F2" />
<rect x="37" y="40" width="1" height="1" fill="#F2F2F2" />
<rect x="38" y="40" width="1" height="1" fill="#F2F2F2" />
<rect x="39" y="40" width="1" height="1" fill="#F2F2F2" />
<rect x="40" y="40" width="1" height="1" fill="#F2F2F2" />
<rect x="41" y="40" width="1" height="1" fill="#F2F2F2" />
<rect x="42" y="40" width="1" height="1" fill="#F2F2F2" />
<rect x="43" y="40" width="1" height="1" fill="#F2F2F2" />
<rect x="44" y="40" width="1" height="1" fill="#F2F2F2" />
<rect x="45" y="40" width="1" height="1" fill="#FFFFFF" />
<rect x="46" y="40" width="1" height="1" fill="#FFFFFF" />
<rect x="47" y="40" width="1" height="1" fill="#FFFFFF" />
<rect x="48" y="40" width="1" height="1" fill="#FFFFFF" />
<rect x="49" y="40" width="1" height="1" fill="#FFFFFF" />
<rect x="50" y="40" width="1" height="1" fill="#FFFFFF" />
<rect x="51" y="40" width="1" height="1" fill="#FFFFFF" />
<rect x="23" y="41" width="1" height="1" fill="#FFFFFF" />
<rect x="24" y="41" width="1" height="1" fill="#FFFFFF" />
<rect x="25" y="41" width="1" height="1" fill="#F2F2F2" />
<rect x="26" y="41" width="1" height="1" fill="#F2F2F2" />
<rect x="27" y="41" width="1" height="1" fill="#F2F2F2" />
<rect x="28" y="41" width="1" height="1" fill="#F2F2F2" />
<rect x="29" y="41" width="1" height="1" fill="#F2F2F2" />
<rect x="30" y="41" width="1" height="1" fill="#F2F2F2" />
<rect x="31" y="41" width="1" height="1" fill="#F2F2F2" />
<rect x="32" y="41" width="1" height="1" fill="#F2F2F2" />
<rect x="33" y="41" width="1" height="1" fill="#F2F2F2" />
<rect x="34" y="41" width="1" height="1" fill="#F2F2F2" />
<rect x="35" y="41" width="1" height="1" fill="#F2F2F2" />
<rect x="36" y="41" width="1" height="1" fill="#F2F2F2" />
<rect x="37" y="41" width="1" height="1" fill="#F2F2F2" />
<rect x="38" y="41" width="1" height="1" fill="#F2F2F2" />
<rect x="39" y="41" width="1" height="1" fill="#F2F2F2" />
<rect x="40" y="41" width="1" height="1" fill="#F2F2F2" />
<rect x="41" y="41" width="1" height="1" fill="#F2F2F2" />
<rect x="42" y="41" width="1" height="1" fill="#F2F2F2" />
<rect x="43" y="41" width="1" height="1" fill="#F2F2F2" />
<rect x="44" y="41" width="1" height="1" fill="#F2F2F2" />
<rect x="45" y="41" width="1" height="1" fill="#FFFFFF" />
<rect x="46" y="41" width="1" height="1" fill="#FFFFFF" />
<rect x="47" y="41" width="1" height="1" fill="#FFFFFF" />
<rect x="48" y="41" width="1" height="1" fill="#FFFFFF" />
<rect x="49" y="41" width="1" height="1" fill="#FFFFFF" />
<rect x="50" y="41" width="1" height="1" fill="#FFFFFF" />
<rect x="51" y="41" width="1" height="1" fill="#FFFFFF" />
<rect x="23" y="42" width="1" height="1" fill="#FFFFFF" />
<rect x="24" y="42" width="1" height="1" fill="#FFFFFF" />
<rect x="25" y="42" width="1" height="1" fill="#F2F2F2" />
<rect x="26" y="42" width="1" height="1" fill="#F2F2F2" />
<rect x="27" y="42" width="1" height="1" fill="#F2F2F2" />
<rect x="28" y="42" width="1" height="1" fill="#F2F2F2" />
<rect x="29" y="42" width="1" height="1" fill="#F2F2F2" />
<rect x="30" y="42" width="1" height="1" fill="#F2F2F2" />
<rect x="31" y="42" width="1" height="1" fill="#F2F2F2" />
<rect x="32" y="42" width="1" height="1" fill="#F2F2F2" />
<rect x="33" y="42" width="1" height="1" fill="#F2F2F2" />
<rect x="34" y="42" width="1" height="1" fill="#F2F2F2" />
<rect x="35" y="42" width="1" height="1" fill="#F2F2F2" />
<rect x="36" y="42" width="1" height="1" fill="#F2F2F2" />
<rect x="37" y="42" width="1" height="1" fill="#F2F2F2" />
<rect x="38" y="42" width="1" height="1" fill="#F2F2F2" />
<rect x="39" y="42" width="1" height="1" fill="#F2F2F2" />
<rect x="40" y="42" width="1" height="1" fill="#F2F2F2" />
<rect x="41" y="42" width="1" height="1" fill="#F2F2F2" />
<rect x="42" y="42" width="1" height="1" fill="#F2F2F2" />
<rect x="43" y="42" width="1" height="1" fill="#F2F2F2" />
<rect x="44" y="42" width="1" height="1" fill="#F2F2F2" />
<rect x="45" y="42" width="1" height="1" fill="#FFFFFF" />
<rect x="46" y="42" width="1" height="1" fill="#FFFFFF" />
<rect x="47" y="42" width="1" height="1" fill="#FFFFFF" />
<rect x="48" y="42" width="1" height="1" fill="#FFFFFF" />
<rect x="49" y="42" width="1" height="1" fill="#FFFFFF" />
<rect x="50" y="42" width="1" height="1" fill="#FFFFFF" />
<rect x="51" y="42" width="1" height="1" fill="#FFFFFF" />
<rect x="23" y="43" width="1" height="1" fill="#FFFFFF" />
<rect x="24" y="43" width="1" height="1" fill="#FFFFFF" />
<rect x="25" y="43" width="1" height="1" fill="#F2F2F2" />
<rect x="26" y="43" width="1" height="1" fill="#F2F2F2" />
<rect x="27" y="43" width="1" height="1" fill="#F2F2F2" />
<rect x="28" y="43" width="1" height="1" fill="#F2F2F2" />
<rect x="29" y="43" width="1" height="1" fill="#F2F2F2" />
<rect x="30" y="43" width="1" height="1" fill="#F2F2F2" />
<rect x="31" y="43" width="1" height="1" fill="#F2F2F2" />
<rect x="32" y="43" width="1" height="1" fill="#F2F2F2" />
<rect x="33" y="43" width="1" height="1" fill="#F2F2F2" />
<rect x="34" y="43" width="1" height="1" fill="#F2F2F2" />
<rect x="35" y="43" width="1" height="1" fill="#F2F2F2" />
<rect x="36" y="43" width="1" height="1" fill="#F2F2F2" />
<rect x="37" y="43" width="1" height="1" fill="#F2F2F2" />
<rect x="38" y="43" width="1" height="1" fill="#F2F2F2" />
<rect x="39" y="43" width="1" height="1" fill="#F2F2F2" />
<rect x="40" y="43" width="1" height="1" fill="#F2F2F2" />
<rect x="41" y="43" width="1" height="1" fill="#F2F2F2" />
<rect x="42" y="43" width="1" height="1" fill="#F2F2F2" />
<rect x="43" y="43" width="1" height="1" fill="#F2F2F2" />
<rect x="44" y="43" width="1" height="1" fill="#F2F2F2" />
<rect x="45" y="43" width="1" height="1" fill="#FFFFFF" />
<rect x="46" y="43" width="1" height="1" fill="#FFFFFF" />
<rect x="24" y="44" width="1" height="1" fill="#FFFFFF" />
<rect x="25" y="44" width="1" height="1" fill="#FFFFFF" />
<rect x="26" y="44" width="1" height="1" fill="#F2F2F2" />
<rect x="27" y="44" width="1" height="1" fill="#F2F2F2" />
<rect x="28" y="44" width="1" height="1" fill="#F2F2F2" />
<rect x="29" y="44" width="1" height="1" fill="#F2F2F2" />
<rect x="30" y="44" width="1" height="1" fill="#F2F2F2" />
<rect x="31" y="44" width="1" height="1" fill="#F2F2F2" />
<rect x="32" y="44" width="1" height="1" fill="#F2F2F2" />
<rect x="33" y="44" width="1" height="1" fill="#F2F2F2" />
<rect x="34" y="44" width="1" height="1" fill="#F2F2F2" />
<rect x="35" y="44" width="1" height="1" fill="#F2F2F2" />
<rect x="36" y="44" width="1" height="1" fill="#F2F2F2" />
<rect x="37" y="44" width="1" height="1" fill="#F2F2F2" />
<rect x="38" y="44" width="1" height="1" fill="#F2F2F2" />
<rect x="39" y="44" width="1" height="1" fill="#F2F2F2" />
<rect x="40" y="44" width="1" height="1" fill="#F2F2F2" />
<rect x="41" y="44" width="1" height="1" fill="#F2F2F2" />
<rect x="42" y="44" width="1" height="1" fill="#F2F2F2" />
<rect x="43" y="44" width="1" height="1" fill="#F2F2F2" />
<rect x="44" y="44" width="1" height="1" fill="#FFFFFF" />
<rect x="45" y="44" width="1" height="1" fill="#FFFFFF" />
<rect x="24" y="45" width="1" height="1" fill="#FFFFFF" />
<rect x="25" y="45" width="1" height="1" fill="#FFFFFF" />
<rect x="26" y="45" width="1" height="1" fill="#F2F2F2" />
<rect x="27" y="45" width="1" height="1" fill="#F2F2F2" />
<rect x="28" y="45" width="1" height="1" fill="#F2F2F2" />
<rect x="29" y="45" width="1" height="1" fill="#F2F2F2" />
<rect x="30" y="45" width="1" height="1" fill="#F2F2F2" />
<rect x="31" y="45" width="1" height="1" fill="#F2F2F2" />
<rect x="32" y="45" width="1" height="1" fill="#F2F2F2" />
<rect x="33" y="45" width="1" height="1" fill="#F2F2F2" />
<rect x="34" y="45" width="1" height="1" fill="#F2F2F2" />
<rect x="35" y="45" width="1" height="1" fill="#F2F2F2" />
<rect x="36" y="45" width="1" height="1" fill="#F2F2F2" />
<rect x="37" y="45" width="1" height="1" fill="#F2F2F2" />
<rect x="38" y="45" width="1" height="1" fill="#F2F2F2" />
<rect x="39" y="45" width="1" height="1" fill="#F2F2F2" />
<rect x="40" y="45" width="1" height="1" fill="#F2F2F2" />
<rect x="41" y="45" width="1" height="1" fill="#F2F2F2" />
<rect x="42" y="45" width="1" height="1" fill="#F2F2F2" />
<rect x="43" y="45" width="1" height="1" fill="#FFFFFF" />
<rect x="44" y="45" width="1" height="1" fill="#FFFFFF" />
<rect x="45" y="45" width="1" height="1" fill="#FFFFFF" />
<rect x="25" y="46" width="1" height="1" fill="#FFFFFF" />
<rect x="26" y="46" width="1" height="1" fill="#F2F2F2" />
<rect x="27" y="46" width="1" height="1" fill="#F2F2F2" />
<rect x="28" y="46" width="1" height="1" fill="#F2F2F2" />
<rect x="29" y="46" width="1" height="1" fill="#F2F2F2" />
<rect x="30" y="46" width="1" height="1" fill="#F2F2F2" />
<rect x="31" y="46" width="1" height="1" fill="#F2F2F2" />
<rect x="32" y="46" width="1" height="1" fill="#F2F2F2" />
<rect x="33" y="46" width="1" height="1" fill="#F2F2F2" />
<rect x="34" y="46" width="1" height="1" fill="#F2F2F2" />
<rect x="35" y="46" width="1" height="1" fill="#F2F2F2" />
<rect x="36" y="46" width="1" height="1" fill="#F2F2F2" />
<rect x="37" y="46" width="1" height="1" fill="#F2F2F2" />
<rect x="38" y="46" width="1" height="1" fill="#F2F2F2" />
<rect x="39" y="46" width="1" height="1" fill="#F2F2F2" />
<rect x="40" y="46" width="1" height="1" fill="#F2F2F2" />
<rect x="41" y="46" width="1" height="1" fill="#F2F2F2" />
<rect x="42" y="46" width="1" height="1" fill="#F2F2F2" />
<rect x="43" y="46" width="1" height="1" fill="#FFFFFF" />
<rect x="44" y="46" width="1" height="1" fill="#FFFFFF" />
<rect x="25" y="47" width="1" height="1" fill="#FFFFFF" />
<rect x="26" y="47" width="1" height="1" fill="#FFFFFF" />
<rect x="27" y="47" width="1" height="1" fill="#F2F2F2" />
<rect x="28" y="47" width="1" height="1" fill="#F2F2F2" />
<rect x="29" y="47" width="1" height="1" fill="#F2F2F2" />
<rect x="30" y="47" width="1" height="1" fill="#F2F2F2" />
<rect x="31" y="47" width="1" height="1" fill="#F2F2F2" />
<rect x="32" y="47" width="1" height="1" fill="#F2F2F2" />
<rect x="33" y="47" width="1" height="1" fill="#F2F2F2" />
<rect x="34" y="47" width="1" height="1" fill="#F2F2F2" />
<rect x="35" y="47" width="1" height="1" fill="#F2F2F2" />
<rect x="36" y="47" width="1" height="1" fill="#F2F2F2" />
<rect x="37" y="47" width="1" height="1" fill="#F2F2F2" />
<rect x="38" y="47" width="1" height="1" fill="#F2F2F2" />
<rect x="39" y="47" width="1" height="1" fill="#F2F2F2" />
<rect x="40" y="47" width="1" height="1" fill="#F2F2F2" />
<rect x="41" y="47" width="1" height="1" fill="#F2F2F2" />
<rect x="42" y="47" width="1" height="1" fill="#F2F2F2" />
<rect x="43" y="47" width="1" height="1" fill="#FFFFFF" />
<rect x="44" y="47" width="1" height="1" fill="#FFFFFF" />
<rect x="26" y="48" width="1" height="1" fill="#FFFFFF" />
<rect x="27" y="48" width="1" height="1" fill="#FFFFFF" />
<rect x="28" y="48" width="1" height="1" fill="#F2F2F2" />
<rect x="29" y="48" width="1" height="1" fill="#F2F2F2" />
<rect x="30" y="48" width="1" height="1" fill="#F2F2F2" />
<rect x="31" y="48" width="1" height="1" fill="#F2F2F2" />
<rect x="32" y="48" width="1" height="1" fill="#F2F2F2" />
<rect x="33" y="48" width="1" height="1" fill="#F2F2F2" />
<rect x="34" y="48" width="1" height="1" fill="#F2F2F2" />
<rect x="35" y="48" width="1" height="1" fill="#F2F2F2" />
<rect x="36" y="48" width="1" height="1" fill="#F2F2F2" />
<rect x="37" y="48" width="1" height="1" fill="#F2F2F2" />
<rect x="38" y="48" width="1" height="1" fill="#F2F2F2" />
<rect x="39" y="48" width="1" height="1" fill="#F2F2F2" />
<rect x="40" y="48" width="1" height="1" fill="#F2F2F2" />
<rect x="41" y="48" width="1" height="1" fill="#F2F2F2" />
<rect x="42" y="48" width="1" height="1" fill="#FFFFFF" />
<rect x="43" y="48" width="1" height="1" fill="#FFFFFF" />
<rect x="27" y="49" width="1" height="1" fill="#FFFFFF" />
<rect x="28" y="49" width="1" height="1" fill="#FFFFFF" />
<rect x="29" y="49" width="1" height="1" fill="#F2F2F2" />
<rect x="30" y="49" width="1" height="1" fill="#F2F2F2" />
<rect x="31" y="49" width="1" height="1" fill="#F2F2F2" />
<rect x="32" y="49" width="1" height="1" fill="#F2F2F2" />
<rect x="33" y="49" width="1" height="1" fill="#F2F2F2" />
<rect x="34" y="49" width="1" height="1" fill="#F2F2F2" />
<rect x="35" y="49" width="1" height="1" fill="#F2F2F2" />
<rect x="36" y="49" width="1" height="1" fill="#F2F2F2" />
<rect x="37" y="49" width="1" height="1" fill="#F2F2F2" />
<rect x="38" y="49" width="1" height="1" fill="#F2F2F2" />
<rect x="39" y="49" width="1" height="1" fill="#F2F2F2" />
<rect x="40" y="49" width="1" height="1" fill="#F2F2F2" />
<rect x="41" y="49" width="1" height="1" fill="#FFFFFF" />
<rect x="42" y="49" width="1" height="1" fill="#FFFFFF" />
<rect x="28" y="50" width="1" height="1" fill="#FFFFFF" />
<rect x="29" y="50" width="1" height="1" fill="#FFFFFF" />
<rect x="30" y="50" width="1" height="1" fill="#FFFFFF" />
<rect x="31" y="50" width="1" height="1" fill="#F2F2F2" />
<rect x="32" y="50" width="1" height="1" fill="#F2F2F2" />
<rect x="33" y="50" width="1" height="1" fill="#F2F2F2" />
<rect x="34" y="50" width="1" height="1" fill="#F2F2F2" />
<rect x="35" y="50" width="1" height="1" fill="#F2F2F2" />
<rect x="36" y="50" width="1" height="1" fill="#F2F2F2" />
<rect x="37" y="50" width="1" height="1" fill="#F2F2F2" />
<rect x="38" y="50" width="1" height="1" fill="#F2F2F2" />
<rect x="39" y="50" width="1" height="1" fill="#FFFFFF" />
<rect x="40" y="50" width="1" height="1" fill="#FFFFFF" />
<rect x="41" y="50" width="1" height="1" fill="#FFFFFF" />
<rect x="30" y="51" width="1" height="1" fill="#FFFFFF" />
<rect x="31" y="51" width="1" height="1" fill="#FFFFFF" />
<rect x="32" y="51" width="1" height="1" fill="#F2F2F2" />
<rect x="33" y="51" width="1" height="1" fill="#F2F2F2" />
<rect x="34" y="51" width="1" height="1" fill="#F2F2F2" />
<rect x="35" y="51" width="1" height="1" fill="#F2F2F2" />
<rect x="36" y="51" width="1" height="1" fill="#F2F2F2" />
<rect x="37" y="51" width="1" height="1" fill="#FFFFFF" />
<rect x="38" y="51" width="1" height="1" fill="#FFFFFF" />
<rect x="39" y="51" width="1" height="1" fill="#FFFFFF" />
<rect x="32" y="52" width="1" height="1" fill="#FFFFFF" />
<rect x="33" y="52" width="1" height="1" fill="#FFFFFF" />
<rect x="34" y="52" width="1" height="1" fill="#FFFFFF" />
<rect x="35" y="52" width="1" height="1" fill="#FFFFFF" />
<rect x="36" y="52" width="1" height="1" fill="#FFFFFF" />
<rect x="37" y="52" width="1" height="1" fill="#FFFFFF" />
</svg>