<?xml version="1.0" encoding="UTF-8" ?>
<svg version="1.1" width="32" height="40" xmlns="http://www.w3.org/2000/svg" shape-rendering="crispEdges">
<rect x="10" y="7" width="1" height="1" fill="#3A4642" />
<rect x="11" y="7" width="1" height="1" fill="#485550" />
<rect x="12" y="7" width="1" height="1" fill="#485550" />
<rect x="13" y="7" width="1" height="1" fill="#485550" />
<rect x="14" y="7" width="1" height="1" fill="#485550" />
<rect x="15" y="7" width="1" height="1" fill="#485550" />
<rect x="16" y="7" width="1" height="1" fill="#485550" />
<rect x="17" y="7" width="1" height="1" fill="#485550" />
<rect x="18" y="7" width="1" height="1" fill="#485550" />
<rect x="19" y="7" width="1" height="1" fill="#485550" />
<rect x="20" y="7" width="1" height="1" fill="#485550" />
<rect x="9" y="8" width="1" height="1" fill="#36413E" />
<rect x="10" y="8" width="1" height="1" fill="#424F4B" />
<rect x="11" y="8" width="1" height="1" fill="#424F4B" />
<rect x="12" y="8" width="1" height="1" fill="#424F4B" />
<rect x="13" y="8" width="1" height="1" fill="#424F4B" />
<rect x="14" y="8" width="1" height="1" fill="#424F4B" />
<rect x="15" y="8" width="1" height="1" fill="#424F4B" />
<rect x="16" y="8" width="1" height="1" fill="#424F4B" />
<rect x="17" y="8" width="1" height="1" fill="#5A6E57" />
<rect x="18" y="8" width="1" height="1" fill="#424F4B" />
<rect x="19" y="8" width="1" height="1" fill="#5A6E57" />
<rect x="20" y="8" width="1" height="1" fill="#5A6E57" />
<rect x="21" y="8" width="1" height="1" fill="#485550" />
<rect x="9" y="9" width="1" height="1" fill="#36413E" />
<rect x="10" y="9" width="1" height="1" fill="#424F4B" />
<rect x="11" y="9" width="1" height="1" fill="#424F4B" />
<rect x="12" y="9" width="1" height="1" fill="#424F4B" />
<rect x="13" y="9" width="1" height="1" fill="#424F4B" />
<rect x="14" y="9" width="1" height="1" fill="#424F4B" />
<rect x="15" y="9" width="1" height="1" fill="#424F4B" />
<rect x="16" y="9" width="1" height="1" fill="#424F4B" />
<rect x="17" y="9" width="1" height="1" fill="#5A6E57" />
<rect x="18" y="9" width="1" height="1" fill="#424F4B" />
<rect x="19" y="9" width="1" height="1" fill="#5A6E57" />
<rect x="20" y="9" width="1" height="1" fill="#5A6E57" />
<rect x="21" y="9" width="1" height="1" fill="#485550" />
<rect x="9" y="10" width="1" height="1" fill="#36413E" />
<rect x="10" y="10" width="1" height="1" fill="#36413E" />
<rect x="11" y="10" width="1" height="1" fill="#485550" />
<rect x="12" y="10" width="1" height="1" fill="#485550" />
<rect x="13" y="10" width="1" height="1" fill="#485550" />
<rect x="14" y="10" width="1" height="1" fill="#485550" />
<rect x="15" y="10" width="1" height="1" fill="#485550" />
<rect x="16" y="10" width="1" height="1" fill="#485550" />
<rect x="17" y="10" width="1" height="1" fill="#485550" />
<rect x="18" y="10" width="1" height="1" fill="#485550" />
<rect x="19" y="10" width="1" height="1" fill="#485550" />
<rect x="20" y="10" width="1" height="1" fill="#485550" />
<rect x="21" y="10" width="1" height="1" fill="#485550" />
<rect x="10" y="11" width="1" height="1" fill="#36413E" />
<rect x="11" y="11" width="1" height="1" fill="#303937" />
<rect x="12" y="11" width="1" height="1" fill="#303937" />
<rect x="13" y="11" width="1" height="1" fill="#303937" />
<rect x="14" y="11" width="1" height="1" fill="#303937" />
<rect x="15" y="11" width="1" height="1" fill="#303937" />
<rect x="16" y="11" width="1" height="1" fill="#303937" />
<rect x="17" y="11" width="1" height="1" fill="#303937" />
<rect x="18" y="11" width="1" height="1" fill="#303937" />
<rect x="19" y="11" width="1" height="1" fill="#303937" />
<rect x="20" y="11" width="1" height="1" fill="#303937" />
<rect x="10" y="12" width="1" height="1" fill="#AABC85" opacity="0.803922" />
<rect x="11" y="12" width="1" height="1" fill="#AABC85" opacity="0.803922" />
<rect x="12" y="12" width="1" height="1" fill="#E6F7C7" />
<rect x="13" y="12" width="1" height="1" fill="#B5BF90" opacity="0.760784" />
<rect x="14" y="12" width="1" height="1" fill="#E6F7C7" />
<rect x="15" y="12" width="1" height="1" fill="#E6F7C7" />
<rect x="16" y="12" width="1" height="1" fill="#E6F7C7" />
<rect x="17" y="12" width="1" height="1" fill="#E6F7C7" />
<rect x="18" y="12" width="1" height="1" fill="#E6F7C7" />
<rect x="19" y="12" width="1" height="1" fill="#E6F7C7" />
<rect x="20" y="12" width="1" height="1" fill="#E6F7C7" />
<rect x="9" y="13" width="1" height="1" fill="#AABC85" opacity="0.803922" />
<rect x="10" y="13" width="1" height="1" fill="#A6BA82" opacity="0.603922" />
<rect x="11" y="13" width="1" height="1" fill="#A6BA82" opacity="0.603922" />
<rect x="12" y="13" width="1" height="1" fill="#B5BF90" opacity="0.509804" />
<rect x="13" y="13" width="1" height="1" fill="#B5BF90" opacity="0.509804" />
<rect x="14" y="13" width="1" height="1" fill="#B5BF90" opacity="0.509804" />
<rect x="15" y="13" width="1" height="1" fill="#B5BF90" opacity="0.509804" />
<rect x="16" y="13" width="1" height="1" fill="#B5BF90" opacity="0.509804" />
<rect x="17" y="13" width="1" height="1" fill="#B5BF90" opacity="0.509804" />
<rect x="18" y="13" width="1" height="1" fill="#B5BF90" opacity="0.509804" />
<rect x="19" y="13" width="1" height="1" fill="#B5BF90" opacity="0.509804" />
<rect x="20" y="13" width="1" height="1" fill="#B5BF90" opacity="0.509804" />
<rect x="21" y="13" width="1" height="1" fill="#E6F7C7" />
<rect x="9" y="14" width="1" height="1" fill="#AABC85" opacity="0.803922" />
<rect x="10" y="14" width="1" height="1" fill="#A6BA82" opacity="0.603922" />
<rect x="11" y="14" width="1" height="1" fill="#A6BA82" opacity="0.603922" />
<rect x="12" y="14" width="1" height="1" fill="#B5BF90" opacity="0.509804" />
<rect x="13" y="14" width="1" height="1" fill="#B5BF90" opacity="0.509804" />
<rect x="14" y="14" width="1" height="1" fill="#B5BF90" opacity="0.509804" />
<rect x="15" y="14" width="1" height="1" fill="#B5BF90" opacity="0.509804" />
<rect x="16" y="14" width="1" height="1" fill="#B5BF90" opacity="0.509804" />
<rect x="17" y="14" width="1" height="1" fill="#B5BF90" opacity="0.509804" />
<rect x="18" y="14" width="1" height="1" fill="#B5BF90" opacity="0.509804" />
<rect x="19" y="14" width="1" height="1" fill="#B5BF90" opacity="0.509804" />
<rect x="20" y="14" width="1" height="1" fill="#B5BF90" opacity="0.509804" />
<rect x="21" y="14" width="1" height="1" fill="#E6F7C7" />
<rect x="9" y="15" width="1" height="1" fill="#AABC85" opacity="0.803922" />
<rect x="10" y="15" width="1" height="1" fill="#A6BA82" opacity="0.603922" />
<rect x="11" y="15" width="1" height="1" fill="#A1D03B" opacity="0.874510" />
<rect x="12" y="15" width="1" height="1" fill="#A9D931" opacity="0.847059" />
<rect x="13" y="15" width="1" height="1" fill="#A9D931" opacity="0.847059" />
<rect x="14" y="15" width="1" height="1" fill="#A9D931" opacity="0.847059" />
<rect x="15" y="15" width="1" height="1" fill="#A9D931" opacity="0.847059" />
<rect x="16" y="15" width="1" height="1" fill="#A9D931" opacity="0.847059" />
<rect x="17" y="15" width="1" height="1" fill="#A9D931" opacity="0.847059" />
<rect x="18" y="15" width="1" height="1" fill="#A9D931" opacity="0.847059" />
<rect x="19" y="15" width="1" height="1" fill="#A9D931" opacity="0.847059" />
<rect x="20" y="15" width="1" height="1" fill="#B5BF90" opacity="0.509804" />
<rect x="21" y="15" width="1" height="1" fill="#E6F7C7" />
<rect x="9" y="16" width="1" height="1" fill="#AABC85" opacity="0.803922" />
<rect x="10" y="16" width="1" height="1" fill="#A1D03B" opacity="0.874510" />
<rect x="11" y="16" width="1" height="1" fill="#A1D03B" opacity="0.874510" />
<rect x="12" y="16" width="1" height="1" fill="#A9D931" opacity="0.847059" />
<rect x="13" y="16" width="1" height="1" fill="#A9D931" opacity="0.847059" />
<rect x="14" y="16" width="1" height="1" fill="#A9D931" opacity="0.847059" />
<rect x="15" y="16" width="1" height="1" fill="#A9D931" opacity="0.847059" />
<rect x="16" y="16" width="1" height="1" fill="#A9D931" opacity="0.847059" />
<rect x="17" y="16" width="1" height="1" fill="#E6F7C7" />
<rect x="18" y="16" width="1" height="1" fill="#E6F7C7" />
<rect x="19" y="16" width="1" height="1" fill="#E6F7C7" />
<rect x="20" y="16" width="1" height="1" fill="#A6D11F" opacity="0.756863" />
<rect x="21" y="16" width="1" height="1" fill="#E6F7C7" />
<rect x="22" y="16" width="1" height="1" fill="#E6F7C7" />
<rect x="9" y="17" width="1" height="1" fill="#AABC85" opacity="0.803922" />
<rect x="10" y="17" width="1" height="1" fill="#A5D84D" opacity="0.843137" />
<rect x="11" y="17" width="1" height="1" fill="#A1D03B" opacity="0.874510" />
<rect x="12" y="17" width="1" height="1" fill="#A9D931" opacity="0.847059" />
<rect x="13" y="17" width="1" height="1" fill="#A9D931" opacity="0.847059" />
<rect x="14" y="17" width="1" height="1" fill="#A9D931" opacity="0.847059" />
<rect x="15" y="17" width="1" height="1" fill="#A9D931" opacity="0.847059" />
<rect x="16" y="17" width="1" height="1" fill="#A9D931" opacity="0.847059" />
<rect x="17" y="17" width="1" height="1" fill="#E6F7C7" />
<rect x="18" y="17" width="1" height="1" fill="#E6F7C7" />
<rect x="19" y="17" width="1" height="1" fill="#E6F7C7" />
<rect x="20" y="17" width="1" height="1" fill="#AEE448" opacity="0.807843" />
<rect x="21" y="17" width="1" height="1" fill="#E6F7C7" />
<rect x="22" y="17" width="1" height="1" fill="#E6F7C7" />
<rect x="23" y="17" width="1" height="1" fill="#E6F7C7" />
<rect x="9" y="18" width="1" height="1" fill="#AABC85" opacity="0.803922" />
<rect x="10" y="18" width="1" height="1" fill="#A5D84D" opacity="0.843137" />
<rect x="11" y="18" width="1" height="1" fill="#A5D84D" opacity="0.843137" />
<rect x="12" y="18" width="1" height="1" fill="#AEE448" opacity="0.807843" />
<rect x="13" y="18" width="1" height="1" fill="#B5DE39" opacity="0.925490" />
<rect x="14" y="18" width="1" height="1" fill="#AEE448" opacity="0.807843" />
<rect x="15" y="18" width="1" height="1" fill="#AEE448" opacity="0.807843" />
<rect x="16" y="18" width="1" height="1" fill="#AEE448" opacity="0.807843" />
<rect x="17" y="18" width="1" height="1" fill="#E6F7C7" />
<rect x="18" y="18" width="1" height="1" fill="#E6F7C7" />
<rect x="19" y="18" width="1" height="1" fill="#E6F7C7" />
<rect x="20" y="18" width="1" height="1" fill="#AEE448" opacity="0.807843" />
<rect x="21" y="18" width="1" height="1" fill="#E6F7C7" />
<rect x="22" y="18" width="1" height="1" fill="#E6F7C7" />
<rect x="24" y="18" width="1" height="1" fill="#E6F7C7" />
<rect x="9" y="19" width="1" height="1" fill="#AABC85" opacity="0.803922" />
<rect x="10" y="19" width="1" height="1" fill="#A5D84D" opacity="0.843137" />
<rect x="11" y="19" width="1" height="1" fill="#A5D84D" opacity="0.843137" />
<rect x="12" y="19" width="1" height="1" fill="#B5DE39" opacity="0.925490" />
<rect x="13" y="19" width="1" height="1" fill="#B5DE39" opacity="0.925490" />
<rect x="14" y="19" width="1" height="1" fill="#B5DE39" opacity="0.925490" />
<rect x="15" y="19" width="1" height="1" fill="#AEE448" opacity="0.807843" />
<rect x="16" y="19" width="1" height="1" fill="#E6F7C7" />
<rect x="17" y="19" width="1" height="1" fill="#AEE448" opacity="0.807843" />
<rect x="18" y="19" width="1" height="1" fill="#AEE448" opacity="0.807843" />
<rect x="19" y="19" width="1" height="1" fill="#AEE448" opacity="0.807843" />
<rect x="20" y="19" width="1" height="1" fill="#AEE448" opacity="0.807843" />
<rect x="21" y="19" width="1" height="1" fill="#E6F7C7" />
<rect x="24" y="19" width="1" height="1" fill="#E6F7C7" />
<rect x="9" y="20" width="1" height="1" fill="#617A58" />
<rect x="10" y="20" width="1" height="1" fill="#617A58" />
<rect x="11" y="20" width="1" height="1" fill="#617A58" />
<rect x="12" y="20" width="1" height="1" fill="#5A6E57" />
<rect x="13" y="20" width="1" height="1" fill="#5A6E57" />
<rect x="14" y="20" width="1" height="1" fill="#5A6E57" />
<rect x="15" y="20" width="1" height="1" fill="#5A6E57" />
<rect x="16" y="20" width="1" height="1" fill="#5A6E57" />
<rect x="17" y="20" width="1" height="1" fill="#5A6E57" />
<rect x="18" y="20" width="1" height="1" fill="#5A6E57" />
<rect x="19" y="20" width="1" height="1" fill="#5A6E57" />
<rect x="20" y="20" width="1" height="1" fill="#60755D" />
<rect x="21" y="20" width="1" height="1" fill="#60755D" />
<rect x="24" y="20" width="1" height="1" fill="#E6F7C7" />
<rect x="9" y="21" width="1" height="1" fill="#617A58" />
<rect x="10" y="21" width="1" height="1" fill="#617A58" />
<rect x="11" y="21" width="1" height="1" fill="#617A58" />
<rect x="12" y="21" width="1" height="1" fill="#5A6E57" />
<rect x="13" y="21" width="1" height="1" fill="#5A6E57" />
<rect x="14" y="21" width="1" height="1" fill="#5A6E57" />
<rect x="15" y="21" width="1" height="1" fill="#5A6E57" />
<rect x="16" y="21" width="1" height="1" fill="#5A6E57" />
<rect x="17" y="21" width="1" height="1" fill="#5A6E57" />
<rect x="18" y="21" width="1" height="1" fill="#5A6E57" />
<rect x="19" y="21" width="1" height="1" fill="#5A6E57" />
<rect x="20" y="21" width="1" height="1" fill="#60755D" />
<rect x="21" y="21" width="1" height="1" fill="#60755D" />
<rect x="24" y="21" width="1" height="1" fill="#E6F7C7" />
<rect x="9" y="22" width="1" height="1" fill="#AABC85" opacity="0.803922" />
<rect x="10" y="22" width="1" height="1" fill="#A8CC40" />
<rect x="11" y="22" width="1" height="1" fill="#A8CC40" />
<rect x="12" y="22" width="1" height="1" fill="#AEE448" opacity="0.807843" />
<rect x="13" y="22" width="1" height="1" fill="#AEE448" opacity="0.807843" />
<rect x="14" y="22" width="1" height="1" fill="#AEE448" opacity="0.807843" />
<rect x="15" y="22" width="1" height="1" fill="#AEE448" opacity="0.807843" />
<rect x="16" y="22" width="1" height="1" fill="#AEE448" opacity="0.807843" />
<rect x="17" y="22" width="1" height="1" fill="#AEE448" opacity="0.807843" />
<rect x="18" y="22" width="1" height="1" fill="#AEE448" opacity="0.807843" />
<rect x="19" y="22" width="1" height="1" fill="#AEE448" opacity="0.807843" />
<rect x="20" y="22" width="1" height="1" fill="#AEE448" opacity="0.807843" />
<rect x="21" y="22" width="1" height="1" fill="#E6F7C7" />
<rect x="24" y="22" width="1" height="1" fill="#B5BF90" opacity="0.760784" />
<rect x="9" y="23" width="1" height="1" fill="#AABC85" opacity="0.803922" />
<rect x="10" y="23" width="1" height="1" fill="#A8CC40" />
<rect x="11" y="23" width="1" height="1" fill="#A8CC40" />
<rect x="12" y="23" width="1" height="1" fill="#AEE448" opacity="0.807843" />
<rect x="13" y="23" width="1" height="1" fill="#AEE448" opacity="0.807843" />
<rect x="14" y="23" width="1" height="1" fill="#AEE448" opacity="0.807843" />
<rect x="15" y="23" width="1" height="1" fill="#AEE448" opacity="0.807843" />
<rect x="16" y="23" width="1" height="1" fill="#AEE448" opacity="0.807843" />
<rect x="17" y="23" width="1" height="1" fill="#AEE448" opacity="0.807843" />
<rect x="18" y="23" width="1" height="1" fill="#AEE448" opacity="0.807843" />
<rect x="19" y="23" width="1" height="1" fill="#AEE448" opacity="0.807843" />
<rect x="20" y="23" width="1" height="1" fill="#AEE448" opacity="0.807843" />
<rect x="21" y="23" width="1" height="1" fill="#E6F7C7" />
<rect x="22" y="23" width="1" height="1" fill="#B5BF90" opacity="0.760784" />
<rect x="24" y="23" width="1" height="1" fill="#B5BF90" opacity="0.760784" />
<rect x="7" y="24" width="1" height="1" fill="#7EDA43" />
<rect x="8" y="24" width="1" height="1" fill="#95DA49" />
<rect x="9" y="24" width="1" height="1" fill="#AABC85" opacity="0.803922" />
<rect x="10" y="24" width="1" height="1" fill="#A8CC40" />
<rect x="11" y="24" width="1" height="1" fill="#A8CC40" />
<rect x="12" y="24" width="1" height="1" fill="#B0D239" />
<rect x="13" y="24" width="1" height="1" fill="#AEE448" opacity="0.807843" />
<rect x="14" y="24" width="1" height="1" fill="#AEE448" opacity="0.807843" />
<rect x="15" y="24" width="1" height="1" fill="#AEE448" opacity="0.807843" />
<rect x="16" y="24" width="1" height="1" fill="#AEE448" opacity="0.807843" />
<rect x="17" y="24" width="1" height="1" fill="#AEE448" opacity="0.807843" />
<rect x="18" y="24" width="1" height="1" fill="#AEE448" opacity="0.807843" />
<rect x="19" y="24" width="1" height="1" fill="#AEE448" opacity="0.807843" />
<rect x="20" y="24" width="1" height="1" fill="#AEE448" opacity="0.807843" />
<rect x="21" y="24" width="1" height="1" fill="#E6F7C7" />
<rect x="22" y="24" width="1" height="1" fill="#B5BF90" opacity="0.760784" />
<rect x="23" y="24" width="1" height="1" fill="#B5BF90" opacity="0.760784" />
<rect x="7" y="25" width="1" height="1" fill="#8ADA46" />
<rect x="8" y="25" width="1" height="1" fill="#7EDA43" />
<rect x="9" y="25" width="1" height="1" fill="#95DA49" />
<rect x="10" y="25" width="1" height="1" fill="#95DA49" />
<rect x="11" y="25" width="1" height="1" fill="#95DA49" />
<rect x="12" y="25" width="1" height="1" fill="#B0D23A" />
<rect x="13" y="25" width="1" height="1" fill="#AEE448" opacity="0.807843" />
<rect x="14" y="25" width="1" height="1" fill="#AEE448" opacity="0.807843" />
<rect x="15" y="25" width="1" height="1" fill="#AEE448" opacity="0.807843" />
<rect x="16" y="25" width="1" height="1" fill="#AEE448" opacity="0.807843" />
<rect x="17" y="25" width="1" height="1" fill="#AEE448" opacity="0.807843" />
<rect x="18" y="25" width="1" height="1" fill="#AEE448" opacity="0.807843" />
<rect x="19" y="25" width="1" height="1" fill="#AEE448" opacity="0.807843" />
<rect x="20" y="25" width="1" height="1" fill="#AEE448" opacity="0.807843" />
<rect x="21" y="25" width="1" height="1" fill="#E6F7C7" />
<rect x="22" y="25" width="1" height="1" fill="#B5BF90" opacity="0.760784" />
<rect x="8" y="26" width="1" height="1" fill="#8ADA46" />
<rect x="9" y="26" width="1" height="1" fill="#7EDA43" />
<rect x="10" y="26" width="1" height="1" fill="#95DA49" />
<rect x="11" y="26" width="1" height="1" fill="#95DA49" />
<rect x="12" y="26" width="1" height="1" fill="#B0D23A" />
<rect x="13" y="26" width="1" height="1" fill="#B0D23A" />
<rect x="14" y="26" width="1" height="1" fill="#AEE448" opacity="0.807843" />
<rect x="15" y="26" width="1" height="1" fill="#AEE448" opacity="0.807843" />
<rect x="16" y="26" width="1" height="1" fill="#AEE448" opacity="0.807843" />
<rect x="17" y="26" width="1" height="1" fill="#AEE448" opacity="0.807843" />
<rect x="18" y="26" width="1" height="1" fill="#AEE448" opacity="0.807843" />
<rect x="19" y="26" width="1" height="1" fill="#AEE448" opacity="0.807843" />
<rect x="20" y="26" width="1" height="1" fill="#AEE448" opacity="0.807843" />
<rect x="21" y="26" width="1" height="1" fill="#E6F7C7" />
<rect x="8" y="27" width="1" height="1" fill="#8ADA46" />
<rect x="9" y="27" width="1" height="1" fill="#8ADA46" />
<rect x="10" y="27" width="1" height="1" fill="#7EDA43" />
<rect x="11" y="27" width="1" height="1" fill="#95DA49" />
<rect x="12" y="27" width="1" height="1" fill="#98E444" />
<rect x="13" y="27" width="1" height="1" fill="#B0D23A" />
<rect x="14" y="27" width="1" height="1" fill="#B0D23A" />
<rect x="15" y="27" width="1" height="1" fill="#AEE448" opacity="0.807843" />
<rect x="16" y="27" width="1" height="1" fill="#AEE448" opacity="0.807843" />
<rect x="17" y="27" width="1" height="1" fill="#AEE448" opacity="0.807843" />
<rect x="18" y="27" width="1" height="1" fill="#AEE448" opacity="0.807843" />
<rect x="19" y="27" width="1" height="1" fill="#AEE448" opacity="0.807843" />
<rect x="20" y="27" width="1" height="1" fill="#B5DE39" opacity="0.925490" />
<rect x="21" y="27" width="1" height="1" fill="#E6F7C7" />
<rect x="8" y="28" width="1" height="1" fill="#8ADA46" />
<rect x="9" y="28" width="1" height="1" fill="#8ADA46" />
<rect x="10" y="28" width="1" height="1" fill="#8ADA46" />
<rect x="11" y="28" width="1" height="1" fill="#7EDA43" />
<rect x="12" y="28" width="1" height="1" fill="#98E444" />
<rect x="13" y="28" width="1" height="1" fill="#98E444" />
<rect x="14" y="28" width="1" height="1" fill="#B0D23A" />
<rect x="15" y="28" width="1" height="1" fill="#B0D23A" />
<rect x="16" y="28" width="1" height="1" fill="#B0D239" />
<rect x="17" y="28" width="1" height="1" fill="#AEE448" opacity="0.807843" />
<rect x="18" y="28" width="1" height="1" fill="#AEE448" opacity="0.807843" />
<rect x="19" y="28" width="1" height="1" fill="#B5DE39" opacity="0.925490" />
<rect x="20" y="28" width="1" height="1" fill="#B5DE39" opacity="0.925490" />
<rect x="21" y="28" width="1" height="1" fill="#B5BF90" opacity="0.760784" />
<rect x="9" y="29" width="1" height="1" fill="#AABC85" opacity="0.803922" />
<rect x="10" y="29" width="1" height="1" fill="#8ADA46" />
<rect x="11" y="29" width="1" height="1" fill="#8ADA46" />
<rect x="12" y="29" width="1" height="1" fill="#7DE33D" />
<rect x="13" y="29" width="1" height="1" fill="#98E444" />
<rect x="14" y="29" width="1" height="1" fill="#B0D23A" />
<rect x="15" y="29" width="1" height="1" fill="#B0D23A" />
<rect x="16" y="29" width="1" height="1" fill="#B0D239" />
<rect x="17" y="29" width="1" height="1" fill="#B0D239" />
<rect x="18" y="29" width="1" height="1" fill="#B0D239" />
<rect x="19" y="29" width="1" height="1" fill="#AEE448" opacity="0.686275" />
<rect x="20" y="29" width="1" height="1" fill="#B5DE39" opacity="0.925490" />
<rect x="21" y="29" width="1" height="1" fill="#B5BF90" opacity="0.760784" />
<rect x="10" y="30" width="1" height="1" fill="#AABC85" opacity="0.803922" />
<rect x="11" y="30" width="1" height="1" fill="#8ADA46" />
<rect x="12" y="30" width="1" height="1" fill="#8BE440" />
<rect x="13" y="30" width="1" height="1" fill="#7DE33D" />
<rect x="14" y="30" width="1" height="1" fill="#B5BF90" opacity="0.760784" />
<rect x="15" y="30" width="1" height="1" fill="#E6F7C7" />
<rect x="16" y="30" width="1" height="1" fill="#E6F7C7" />
<rect x="17" y="30" width="1" height="1" fill="#E6F7C7" />
<rect x="18" y="30" width="1" height="1" fill="#E6F7C7" />
<rect x="19" y="30" width="1" height="1" fill="#E6F7C7" />
<rect x="20" y="30" width="1" height="1" fill="#E6F7C7" />
<rect x="14" y="31" width="1" height="1" fill="#82E33E" />
</svg>